<?xml version="1.0" standalone="no"?>
<!DOCTYPE svg PUBLIC "-//W3C//DTD SVG 20010904//EN"
 "http://www.w3.org/TR/2001/REC-SVG-20010904/DTD/svg10.dtd">
<svg version="1.0" xmlns="http://www.w3.org/2000/svg"
 width="512.000000pt" height="512.000000pt" viewBox="0 0 512.000000 512.000000"
 preserveAspectRatio="xMidYMid meet">

<g transform="translate(0.000000,512.000000) scale(0.100000,-0.100000)"
fill="currentColor" stroke="none">
<path d="M1211 4784 c-113 -30 -229 -113 -287 -206 -13 -20 -93 -194 -178
-385 l-155 -348 -245 -5 c-269 -5 -270 -6 -320 -74 -29 -39 -29 -133 0 -172
48 -66 59 -69 249 -72 l173 -3 -40 -90 c-27 -58 -47 -89 -57 -89 -9 0 -45 -14
-79 -30 -78 -37 -178 -134 -216 -208 -56 -111 -56 -107 -56 -862 0 -755 0
-751 56 -862 35 -70 135 -168 206 -202 l57 -28 3 -296 c3 -285 4 -299 26 -342
35 -72 75 -114 144 -151 l63 -34 325 0 325 0 63 34 c70 38 100 69 140 145 l27
51 3 282 3 283 1119 0 1119 0 3 -282 c3 -270 4 -285 26 -328 35 -72 75 -114
144 -151 l63 -34 325 0 325 0 63 34 c70 38 100 69 140 145 l27 51 3 297 3 296
57 28 c118 57 228 202 252 333 14 73 13 1390 0 1462 -26 138 -135 279 -262
339 -34 16 -70 30 -79 30 -10 0 -29 29 -52 83 -21 45 -37 85 -37 89 0 4 76 8
169 10 185 3 197 7 245 72 29 39 29 133 0 172 -50 68 -51 69 -320 74 l-245 5
-155 348 c-85 191 -165 365 -179 386 -62 100 -185 185 -303 210 -38 8 -422 11
-1340 10 -1091 0 -1295 -3 -1341 -15z m2642 -318 c18 -7 42 -24 54 -37 17 -18
483 -1047 483 -1065 0 -2 -823 -4 -1830 -4 -1007 0 -1830 2 -1830 4 0 18 466
1047 483 1065 49 52 -11 50 1345 51 1048 0 1268 -2 1295 -14z m873 -1452 c15
-11 37 -33 48 -48 21 -27 21 -36 21 -726 0 -690 0 -699 -21 -726 -11 -15 -33
-37 -48 -48 l-27 -21 -2139 0 -2139 0 -27 21 c-15 11 -37 33 -48 48 -21 27
-21 39 -24 699 -2 370 0 686 3 704 7 40 49 91 90 109 25 11 404 13 2157 11
l2127 -2 27 -21z m-3606 -2134 l0 -240 -240 0 -240 0 0 240 0 240 240 0 240 0
0 -240z m3360 0 l0 -240 -240 0 -240 0 0 240 0 240 240 0 240 0 0 -240z"/>
<path d="M1001 2704 c-253 -68 -410 -331 -346 -579 67 -256 329 -415 580 -350
256 67 415 329 350 578 -67 259 -333 419 -584 351z m182 -318 c103 -43 128
-177 48 -257 -65 -65 -157 -65 -222 0 -124 123 13 325 174 257z"/>
<path d="M3881 2704 c-253 -68 -410 -331 -346 -579 67 -256 329 -415 580 -350
256 67 415 329 350 578 -67 259 -333 419 -584 351z m182 -318 c103 -43 128
-177 48 -257 -65 -65 -157 -65 -222 0 -124 123 13 325 174 257z"/>
</g>
</svg>
