<?xml version="1.0" standalone="no"?>
<!DOCTYPE svg PUBLIC "-//W3C//DTD SVG 20010904//EN"
 "http://www.w3.org/TR/2001/REC-SVG-20010904/DTD/svg10.dtd">
<svg version="1.0" xmlns="http://www.w3.org/2000/svg"
 width="512.000000pt" height="512.000000pt" viewBox="0 0 512.000000 512.000000"
 preserveAspectRatio="xMidYMid meet">

<g transform="translate(0.000000,512.000000) scale(0.100000,-0.100000)"
fill="currentColor" stroke="none">
<path d="M2285 5110 c-163 -17 -383 -78 -501 -138 -222 -113 -319 -246 -349
-479 l-7 -52 -421 -3 c-405 -3 -423 -4 -457 -24 -105 -61 -109 -212 -8 -274
33 -20 55 -20 2013 -20 1943 0 1981 0 2009 20 42 27 76 87 76 134 0 50 -35
111 -80 139 -34 22 -42 22 -451 25 l-416 3 -12 81 c-22 145 -79 260 -165 334
-141 122 -415 225 -674 253 -113 12 -446 13 -557 1z m635 -335 c256 -56 403
-140 435 -249 8 -27 15 -58 15 -68 0 -17 -34 -18 -811 -18 l-811 0 6 38 c13
72 27 101 68 137 82 75 289 151 473 175 114 14 537 4 625 -15z"/>
<path d="M1012 3780 c-18 -11 -41 -34 -52 -52 -20 -33 -20 -54 -20 -1686 0
-1641 0 -1653 21 -1714 52 -155 177 -272 334 -314 40 -11 282 -14 1265 -14
783 0 1231 4 1259 11 150 34 283 156 343 315 l23 59 0 1650 c0 1646 0 1650
-21 1685 -59 102 -208 109 -271 13 -17 -26 -18 -108 -23 -1663 -5 -1627 -5
-1635 -26 -1670 -11 -19 -35 -45 -54 -57 l-33 -23 -1196 0 c-1168 0 -1197 1
-1228 20 -18 10 -40 31 -50 47 -17 26 -18 108 -23 1663 -5 1627 -5 1635 -26
1670 -45 77 -148 105 -222 60z"/>
<path d="M1770 3778 c-18 -13 -41 -39 -51 -58 -18 -33 -19 -92 -19 -1471 l0
-1436 23 -33 c33 -50 70 -72 124 -77 59 -5 117 25 147 77 21 35 21 40 21 1476
l0 1441 -28 36 c-15 20 -41 44 -57 52 -44 23 -121 19 -160 -7z"/>
<path d="M2495 3790 c-31 -13 -66 -50 -81 -86 -12 -28 -14 -264 -14 -1455 0
-1582 -5 -1461 68 -1517 29 -22 46 -27 93 -27 62 0 94 17 133 69 21 27 21 31
24 1468 l2 1440 -22 39 c-30 54 -73 79 -134 78 -27 0 -58 -4 -69 -9z"/>
<path d="M3180 3777 c-19 -12 -43 -38 -54 -57 -21 -35 -21 -40 -21 -1470 l0
-1435 22 -35 c26 -43 88 -80 132 -80 44 0 91 22 126 59 l30 32 3 1452 c2 1435
2 1452 -18 1485 -44 72 -151 96 -220 49z"/>
</g>
</svg>
